<svg width="41" height="38" viewBox="0 0 41 38" fill="none" xmlns="http://www.w3.org/2000/svg">
<path d="M20.6059 8.60997C18.5134 11.1621 17.4221 14.3366 17.5098 17.6872L17.5311 18.4988L15.9866 18.1369L14.8593 16.956C14.9008 15.0284 15.276 13.1443 15.9779 11.3444C17.32 7.90262 19.2728 6.09929 20.6059 4.76611L21.1358 6.90932L20.6059 8.60997Z" fill="white"/>
<path d="M16.6797 9.78369C16.4331 10.2638 16.1972 10.7818 15.9779 11.3443C15.3677 12.9091 15.0047 14.5376 14.8929 16.203C16.0572 16.4361 16.9657 16.7788 17.5084 17.0171C17.5558 14.7407 18.1501 12.5608 19.2345 10.6207C18.2731 10.1003 17.3578 9.87681 16.6797 9.78369Z" fill="white"/>
<path d="M10.5043 26.106C13.8288 26.6486 17.1475 25.9442 19.9136 24.2489L20.6059 23.8247L21.1358 25.5621L20.6059 26.9095C18.1846 28.2372 15.474 28.9354 12.7173 28.9355C10.2897 28.9356 8.68786 28.4343 7.17511 28.029L8.73889 26.5959L10.5043 26.106Z" fill="white"/>
<path d="M13.3441 26.2709C13.9819 27.1672 14.3126 28.1064 14.4839 28.8393C16.6244 28.6062 18.7044 27.952 20.6059 26.9094L20.6404 26.8216C20.4396 25.7584 20.0443 24.9227 19.7132 24.3687C17.787 25.5052 15.6043 26.1673 13.3441 26.2709Z" fill="white"/>
<path d="M30.7074 26.1059C29.5431 23.0171 27.3397 20.4848 24.3943 18.8862L23.6807 18.4989L24.9782 17.2198L26.3524 16.9561C28.0014 17.9557 29.4458 19.2229 30.6537 20.731C32.963 23.6141 33.5477 26.2044 34.0366 28.0289L32.4373 27.635L30.7074 26.1059Z" fill="white"/>
<path d="M25.2278 19.3761C27.1142 20.5728 28.6501 22.1772 29.7454 24.0734C30.6408 23.4691 31.2675 22.7654 31.6871 22.1703C31.3867 21.7004 31.0456 21.2199 30.6539 20.7309C29.596 19.4101 28.3567 18.2741 26.9574 17.3408C26.3329 18.246 25.6982 18.9274 25.2278 19.3761Z" fill="white"/>
<path d="M13.3389 37.6378C10.8435 37.6378 8.34809 36.099 6.53126 34.359C-3.56843 24.2594 -0.0156329 7.16294 13.1165 1.83768C26.1646 -3.45331 40.5104 6.13319 40.5104 20.2845C40.5104 30.3227 33.1496 37.6378 27.8737 37.6378C23.6223 37.6378 21.1182 33.2686 22.047 28.8607C23.7042 20.9969 28.5073 21.1163 30.9808 14.3326C26.0478 13.3358 23.352 14.7849 20.606 16.4678C17.8636 14.7872 15.1828 13.332 10.231 14.3326C12.7017 21.1088 17.51 21.008 19.1648 28.8607C20.0952 33.276 17.5843 37.6375 13.3389 37.6378ZM8.3846 32.4654C14.4061 37.9735 17.3906 33.2904 16.5723 29.407C15.028 22.0786 9.84545 22.7259 7.25485 13.7413L6.88084 12.4441C10.6954 11.4219 15.0391 10.2513 20.606 13.3779C23.0563 12.0018 25.4113 11.3569 27.9582 11.3569C30.5089 11.3569 32.5921 11.9781 34.331 12.4441L33.957 13.7413C31.3667 22.7245 26.1841 22.0771 24.6396 29.407C23.823 33.2819 26.7908 37.9871 32.8272 32.4654C39.5351 25.7361 39.5281 14.8046 32.8071 8.08343C26.0636 1.34001 15.1487 1.33949 8.40462 8.08343C1.6836 14.8046 1.67664 25.7362 8.3846 32.4654Z" fill="white"/>
<path d="M24.5088 30.5327C24.5183 30.1564 24.5616 29.7779 24.6397 29.4071C25.1292 27.0845 25.984 25.5629 27.0057 24.282C25.8723 24.0809 24.9358 23.7625 24.2741 23.489C23.344 24.8216 22.5504 26.4727 22.0472 28.8608C21.9919 29.123 21.9492 29.3851 21.9179 29.6461C22.9028 30.2004 23.8407 30.435 24.5088 30.5327Z" fill="white"/>
<path d="M9.54114 18.8798C10.9775 21.0683 12.5938 22.3574 13.955 23.9759C14.6292 23.1283 15.3023 22.4939 15.8112 22.0691C14.4055 20.4741 12.8503 19.1831 11.5558 17.0876C10.6313 17.6506 9.97603 18.3237 9.54114 18.8798Z" fill="white"/>
<path d="M27.9489 14.0065C27.8509 13.0002 27.562 12.0562 27.3019 11.3718C25.0908 11.4704 23.0087 12.0726 20.8608 13.2376C21.362 14.343 21.5232 15.2605 21.5601 15.897C23.3796 14.8447 25.2921 14.0045 27.9489 14.0065Z" fill="white"/>
<path d="M7.17511 28.0289C7.62449 26.3519 8.19909 23.6761 10.558 20.731C11.7659 19.2229 13.2103 17.9557 14.8593 16.9561L17.531 18.4989L16.8174 18.8862C13.8721 20.4848 11.6686 23.0171 10.5043 26.106L7.17511 28.0289Z" fill="white"/>
<path d="M34.0367 28.029L32.7572 28.3718C28.605 29.4845 24.2809 28.9246 20.6059 26.9095V23.8247L21.2981 24.2489C24.063 25.9434 27.3809 26.6488 30.7075 26.106L34.0367 28.029Z" fill="white"/>
<path d="M23.6808 18.4988L23.702 17.6872C23.7897 14.3365 22.6984 11.162 20.6059 8.60997V4.76611L21.5426 5.70284C24.6565 8.81677 26.2646 12.8759 26.3525 16.956L23.6808 18.4988Z" fill="white"/>
</svg>
