<svg width="56" height="60" viewBox="0 0 56 60" fill="none" xmlns="http://www.w3.org/2000/svg">
<g filter="url(#filter0_b_1_290)">
<rect width="55.2128" height="60" rx="27.6064" fill="white" fill-opacity="0.1"/>
<rect x="0.5" y="0.5" width="54.2128" height="59" rx="27.1064" stroke="white"/>
<path d="M27.6059 19.61C25.5134 22.1621 24.4221 25.3366 24.5098 28.6872L24.5311 29.4988L22.9866 29.1369L21.8593 27.956C21.9008 26.0284 22.276 24.1443 22.9779 22.3444C24.32 18.9026 26.2728 17.0993 27.6059 15.7661L28.1358 17.9093L27.6059 19.61Z" fill="white"/>
<path d="M23.6797 20.7837C23.4331 21.2638 23.1972 21.7818 22.9779 22.3443C22.3677 23.9091 22.0047 25.5376 21.8929 27.203C23.0572 27.4361 23.9657 27.7788 24.5084 28.0171C24.5558 25.7407 25.1501 23.5608 26.2345 21.6207C25.2731 21.1003 24.3578 20.8768 23.6797 20.7837Z" fill="white"/>
<path d="M17.5043 37.106C20.8288 37.6486 24.1475 36.9442 26.9136 35.2489L27.6059 34.8247L28.1358 36.5621L27.6059 37.9095C25.1846 39.2372 22.474 39.9354 19.7173 39.9355C17.2897 39.9356 15.6879 39.4343 14.1751 39.029L15.7389 37.5959L17.5043 37.106Z" fill="white"/>
<path d="M20.3441 37.2709C20.9819 38.1672 21.3126 39.1064 21.4839 39.8393C23.6244 39.6062 25.7044 38.952 27.6059 37.9094L27.6404 37.8216C27.4396 36.7584 27.0443 35.9227 26.7132 35.3687C24.787 36.5052 22.6043 37.1673 20.3441 37.2709Z" fill="white"/>
<path d="M37.7074 37.1059C36.5431 34.0171 34.3397 31.4848 31.3943 29.8862L30.6807 29.4989L31.9782 28.2198L33.3524 27.9561C35.0014 28.9557 36.4458 30.2229 37.6537 31.731C39.963 34.6141 40.5477 37.2044 41.0366 39.0289L39.4373 38.635L37.7074 37.1059Z" fill="white"/>
<path d="M32.2278 30.3761C34.1142 31.5728 35.6501 33.1772 36.7454 35.0734C37.6408 34.4691 38.2675 33.7654 38.6871 33.1703C38.3867 32.7004 38.0456 32.2199 37.6539 31.7309C36.596 30.4101 35.3567 29.2741 33.9574 28.3408C33.3329 29.246 32.6982 29.9274 32.2278 30.3761Z" fill="white"/>
<path d="M20.3389 48.6378C17.8435 48.6378 15.3481 47.099 13.5313 45.359C3.43157 35.2594 6.98437 18.1629 20.1165 12.8377C33.1646 7.54669 47.5104 17.1332 47.5104 31.2845C47.5104 41.3227 40.1496 48.6378 34.8737 48.6378C30.6223 48.6378 28.1182 44.2686 29.047 39.8607C30.7042 31.9969 35.5073 32.1163 37.9808 25.3326C33.0478 24.3358 30.352 25.7849 27.606 27.4678C24.8636 25.7872 22.1828 24.332 17.231 25.3326C19.7017 32.1088 24.51 32.008 26.1648 39.8607C27.0952 44.276 24.5843 48.6375 20.3389 48.6378ZM15.3846 43.4654C21.4061 48.9735 24.3906 44.2904 23.5723 40.407C22.028 33.0786 16.8455 33.7259 14.2549 24.7413L13.8808 23.4441C17.6954 22.4219 22.0391 21.2513 27.606 24.3779C30.0563 23.0018 32.4113 22.3569 34.9582 22.3569C37.5089 22.3569 39.5921 22.9781 41.331 23.4441L40.957 24.7413C38.3667 33.7245 33.1841 33.0771 31.6396 40.407C30.823 44.2819 33.7908 48.9871 39.8272 43.4654C46.5351 36.7361 46.5281 25.8046 39.8071 19.0834C33.0636 12.34 22.1487 12.3395 15.4046 19.0834C8.6836 25.8046 8.67664 36.7362 15.3846 43.4654Z" fill="white"/>
<path d="M31.5088 41.5327C31.5183 41.1564 31.5616 40.7779 31.6397 40.4071C32.1292 38.0845 32.984 36.5629 34.0057 35.282C32.8723 35.0809 31.9358 34.7625 31.2741 34.489C30.344 35.8216 29.5504 37.4727 29.0472 39.8608C28.9919 40.123 28.9492 40.3851 28.9179 40.6461C29.9028 41.2004 30.8407 41.435 31.5088 41.5327Z" fill="white"/>
<path d="M16.5411 29.8798C17.9775 32.0683 19.5938 33.3574 20.955 34.9759C21.6292 34.1283 22.3023 33.4939 22.8112 33.0691C21.4055 31.4741 19.8503 30.1831 18.5558 28.0876C17.6313 28.6506 16.976 29.3237 16.5411 29.8798Z" fill="white"/>
<path d="M34.9489 25.0065C34.8509 24.0002 34.562 23.0562 34.3019 22.3718C32.0908 22.4704 30.0087 23.0726 27.8608 24.2376C28.362 25.343 28.5232 26.2605 28.5601 26.897C30.3796 25.8447 32.2921 25.0045 34.9489 25.0065Z" fill="white"/>
<path d="M14.1751 39.0289C14.6245 37.3519 15.1991 34.6761 17.558 31.731C18.7659 30.2229 20.2103 28.9557 21.8593 27.9561L24.531 29.4989L23.8174 29.8862C20.8721 31.4848 18.6686 34.0171 17.5043 37.106L14.1751 39.0289Z" fill="white"/>
<path d="M41.0367 39.029L39.7572 39.3718C35.605 40.4845 31.2809 39.9246 27.6059 37.9095V34.8247L28.2981 35.2489C31.063 36.9434 34.3809 37.6488 37.7075 37.106L41.0367 39.029Z" fill="white"/>
<path d="M30.6808 29.4988L30.702 28.6872C30.7897 25.3365 29.6984 22.162 27.6059 19.61V15.7661L28.5426 16.7028C31.6565 19.8168 33.2646 23.8759 33.3525 27.956L30.6808 29.4988Z" fill="white"/>
</g>
<defs>
<filter id="filter0_b_1_290" x="-10" y="-10" width="75.2128" height="80" filterUnits="userSpaceOnUse" color-interpolation-filters="sRGB">
<feFlood flood-opacity="0" result="BackgroundImageFix"/>
<feGaussianBlur in="BackgroundImageFix" stdDeviation="5"/>
<feComposite in2="SourceAlpha" operator="in" result="effect1_backgroundBlur_1_290"/>
<feBlend mode="normal" in="SourceGraphic" in2="effect1_backgroundBlur_1_290" result="shape"/>
</filter>
</defs>
</svg>
