<svg width="61" height="61" viewBox="0 0 61 61" fill="none" xmlns="http://www.w3.org/2000/svg">
<rect x="0.25" y="0.25" width="60.3067" height="60.0823" rx="11.75" fill="white" fill-opacity="0.1" stroke="url(#paint0_linear_6_2057)" stroke-width="0.5"/>
<mask id="mask0_6_2057" style="mask-type:alpha" maskUnits="userSpaceOnUse" x="5" y="5" width="51" height="50">
<rect x="5.65039" y="5.33789" width="49.457" height="49.457" fill="#D9D9D9"/>
</mask>
<g mask="url(#mask0_6_2057)">
<path d="M24.1967 34.7029C23.4754 34.7029 22.8658 34.4539 22.3678 33.9559C21.8698 33.4579 21.6208 32.8483 21.6208 32.127C21.6208 31.4058 21.8698 30.7962 22.3678 30.2982C22.8658 29.8001 23.4754 29.5511 24.1967 29.5511C24.9179 29.5511 25.5276 29.8001 26.0256 30.2982C26.5236 30.7962 26.7726 31.4058 26.7726 32.127C26.7726 32.8483 26.5236 33.4579 26.0256 33.9559C25.5276 34.4539 24.9179 34.7029 24.1967 34.7029ZM36.561 34.7029C35.8397 34.7029 35.2301 34.4539 34.7321 33.9559C34.2341 33.4579 33.9851 32.8483 33.9851 32.127C33.9851 31.4058 34.2341 30.7962 34.7321 30.2982C35.2301 29.8001 35.8397 29.5511 36.561 29.5511C37.2822 29.5511 37.8918 29.8001 38.3898 30.2982C38.8878 30.7962 39.1368 31.4058 39.1368 32.127C39.1368 32.8483 38.8878 33.4579 38.3898 33.9559C37.8918 34.4539 37.2822 34.7029 36.561 34.7029ZM30.3788 46.552C34.9811 46.552 38.8792 44.9549 42.0733 41.7608C45.2674 38.5667 46.8645 34.6686 46.8645 30.0663C46.8645 29.242 46.813 28.4435 46.7099 27.6707C46.6069 26.898 46.418 26.151 46.1432 25.4297C45.422 25.6015 44.7008 25.7302 43.9795 25.8161C43.2583 25.902 42.5027 25.9449 41.7127 25.9449C38.5873 25.9449 35.6336 25.2752 32.8517 23.9357C30.0697 22.5963 27.6999 20.7244 25.7422 18.3203C24.6432 20.9992 23.0719 23.3261 21.0284 25.3009C18.9848 27.2758 16.6064 28.7612 13.8931 29.7572V30.0663C13.8931 34.6686 15.4902 38.5667 18.6843 41.7608C21.8784 44.9549 25.7766 46.552 30.3788 46.552ZM30.3788 50.6734C27.5282 50.6734 24.8493 50.1325 22.3421 49.0506C19.8349 47.9687 17.6539 46.5005 15.7993 44.6458C13.9447 42.7912 12.4764 40.6103 11.3945 38.1031C10.3127 35.5959 9.77173 32.917 9.77173 30.0663C9.77173 27.2157 10.3127 24.5368 11.3945 22.0296C12.4764 19.5224 13.9447 17.3414 15.7993 15.4868C17.6539 13.6322 19.8349 12.1639 22.3421 11.082C24.8493 10.0002 27.5282 9.45923 30.3788 9.45923C33.2295 9.45923 35.9084 10.0002 38.4156 11.082C40.9228 12.1639 43.1037 13.6322 44.9583 15.4868C46.813 17.3414 48.2812 19.5224 49.3631 22.0296C50.445 24.5368 50.9859 27.2157 50.9859 30.0663C50.9859 32.917 50.445 35.5959 49.3631 38.1031C48.2812 40.6103 46.813 42.7912 44.9583 44.6458C43.1037 46.5005 40.9228 47.9687 38.4156 49.0506C35.9084 50.1325 33.2295 50.6734 30.3788 50.6734ZM27.5969 13.8382C29.0394 16.2424 30.997 18.1743 33.4699 19.634C35.9427 21.0937 38.6904 21.8235 41.7127 21.8235C42.1936 21.8235 42.6572 21.7977 43.1037 21.7462C43.5502 21.6947 44.0139 21.6346 44.4947 21.5659C43.0522 19.1617 41.0945 17.2298 38.6217 15.7702C36.1488 14.3105 33.4012 13.5806 30.3788 13.5806C29.898 13.5806 29.4343 13.6064 28.9878 13.6579C28.5414 13.7094 28.0777 13.7695 27.5969 13.8382ZM14.7689 24.863C16.5206 23.867 18.0489 22.5791 19.354 20.9992C20.6591 19.4193 21.638 17.6505 22.2905 15.6929C20.5389 16.6889 19.0106 17.9768 17.7055 19.5567C16.4003 21.1366 15.4215 22.9054 14.7689 24.863Z" fill="white"/>
</g>
<defs>
<linearGradient id="paint0_linear_6_2057" x1="10.5481" y1="-16.691" x2="27.191" y2="30.9477" gradientUnits="userSpaceOnUse">
<stop stop-color="white"/>
<stop offset="1" stop-color="#667085"/>
</linearGradient>
</defs>
</svg>
