<svg width="188" height="28" viewBox="0 0 188 28" fill="none" xmlns="http://www.w3.org/2000/svg">
<path d="M125.845 17.06C125.345 17.06 124.868 16.98 124.415 16.82C123.962 16.6533 123.602 16.4333 123.335 16.16L123.685 15.59C123.905 15.8233 124.205 16.0167 124.585 16.17C124.972 16.3233 125.388 16.4 125.835 16.4C126.428 16.4 126.878 16.27 127.185 16.01C127.498 15.7433 127.655 15.3967 127.655 14.97C127.655 14.67 127.582 14.4133 127.435 14.2C127.295 13.98 127.055 13.81 126.715 13.69C126.375 13.57 125.908 13.51 125.315 13.51H123.825L124.185 10H128.015V10.64H124.475L124.845 10.29L124.535 13.23L124.165 12.87H125.475C126.182 12.87 126.748 12.9567 127.175 13.13C127.602 13.3033 127.908 13.5467 128.095 13.86C128.288 14.1667 128.385 14.5267 128.385 14.94C128.385 15.3333 128.292 15.6933 128.105 16.02C127.918 16.34 127.638 16.5933 127.265 16.78C126.892 16.9667 126.418 17.06 125.845 17.06ZM132.169 17.06C131.549 17.06 131.026 16.9233 130.599 16.65C130.172 16.37 129.849 15.97 129.629 15.45C129.409 14.9233 129.299 14.2933 129.299 13.56C129.299 12.7667 129.432 12.1033 129.699 11.57C129.972 11.03 130.349 10.6233 130.829 10.35C131.309 10.0767 131.866 9.94 132.499 9.94C132.812 9.94 133.112 9.97 133.399 10.03C133.686 10.09 133.939 10.1867 134.159 10.32L133.869 10.9C133.689 10.78 133.482 10.6967 133.249 10.65C133.016 10.5967 132.769 10.57 132.509 10.57C131.756 10.57 131.152 10.81 130.699 11.29C130.252 11.77 130.029 12.4867 130.029 13.44C130.029 13.5867 130.036 13.77 130.049 13.99C130.069 14.2033 130.109 14.4167 130.169 14.63L129.919 14.44C129.992 14.0933 130.136 13.8 130.349 13.56C130.562 13.3133 130.829 13.1267 131.149 13C131.469 12.8733 131.819 12.81 132.199 12.81C132.666 12.81 133.076 12.8967 133.429 13.07C133.782 13.2433 134.059 13.4867 134.259 13.8C134.459 14.1133 134.559 14.4833 134.559 14.91C134.559 15.3433 134.456 15.7233 134.249 16.05C134.042 16.37 133.756 16.62 133.389 16.8C133.029 16.9733 132.622 17.06 132.169 17.06ZM132.139 16.45C132.472 16.45 132.766 16.39 133.019 16.27C133.279 16.1433 133.482 15.9667 133.629 15.74C133.776 15.5067 133.849 15.2367 133.849 14.93C133.849 14.47 133.689 14.1033 133.369 13.83C133.056 13.5567 132.629 13.42 132.089 13.42C131.729 13.42 131.416 13.4867 131.149 13.62C130.882 13.7533 130.672 13.9367 130.519 14.17C130.366 14.3967 130.289 14.6567 130.289 14.95C130.289 15.2033 130.359 15.4467 130.499 15.68C130.639 15.9067 130.846 16.0933 131.119 16.24C131.399 16.38 131.739 16.45 132.139 16.45ZM138.053 17.06C137.493 17.06 137.01 16.98 136.603 16.82C136.203 16.66 135.893 16.43 135.673 16.13C135.46 15.8233 135.353 15.4633 135.353 15.05C135.353 14.65 135.456 14.31 135.663 14.03C135.876 13.7433 136.183 13.5233 136.583 13.37C136.99 13.2167 137.48 13.14 138.053 13.14C138.62 13.14 139.106 13.2167 139.513 13.37C139.92 13.5233 140.23 13.7433 140.443 14.03C140.663 14.31 140.773 14.65 140.773 15.05C140.773 15.4633 140.663 15.8233 140.443 16.13C140.223 16.43 139.91 16.66 139.503 16.82C139.096 16.98 138.613 17.06 138.053 17.06ZM138.053 16.45C138.673 16.45 139.156 16.3233 139.503 16.07C139.856 15.8167 140.033 15.4733 140.033 15.04C140.033 14.6067 139.856 14.2667 139.503 14.02C139.156 13.7667 138.673 13.64 138.053 13.64C137.433 13.64 136.95 13.7667 136.603 14.02C136.256 14.2667 136.083 14.6067 136.083 15.04C136.083 15.4733 136.256 15.8167 136.603 16.07C136.95 16.3233 137.433 16.45 138.053 16.45ZM138.053 13.55C137.533 13.55 137.09 13.48 136.723 13.34C136.363 13.2 136.086 13 135.893 12.74C135.7 12.4733 135.603 12.1567 135.603 11.79C135.603 11.4033 135.703 11.0733 135.903 10.8C136.11 10.52 136.396 10.3067 136.763 10.16C137.13 10.0133 137.56 9.94 138.053 9.94C138.546 9.94 138.976 10.0133 139.343 10.16C139.716 10.3067 140.006 10.52 140.213 10.8C140.42 11.0733 140.523 11.4033 140.523 11.79C140.523 12.1567 140.426 12.4733 140.233 12.74C140.04 13 139.756 13.2 139.383 13.34C139.016 13.48 138.573 13.55 138.053 13.55ZM138.053 13.07C138.6 13.07 139.026 12.9567 139.333 12.73C139.64 12.5033 139.793 12.2 139.793 11.82C139.793 11.42 139.633 11.11 139.313 10.89C139 10.6633 138.58 10.55 138.053 10.55C137.526 10.55 137.106 10.6633 136.793 10.89C136.48 11.11 136.323 11.4167 136.323 11.81C136.323 12.1967 136.473 12.5033 136.773 12.73C137.08 12.9567 137.506 13.07 138.053 13.07ZM143.95 9.94C144.57 9.94 145.093 10.08 145.52 10.36C145.946 10.6333 146.27 11.03 146.49 11.55C146.71 12.07 146.82 12.7 146.82 13.44C146.82 14.2267 146.683 14.89 146.41 15.43C146.143 15.97 145.77 16.3767 145.29 16.65C144.81 16.9233 144.253 17.06 143.62 17.06C143.306 17.06 143.006 17.03 142.72 16.97C142.44 16.91 142.186 16.8133 141.96 16.68L142.25 16.1C142.43 16.22 142.636 16.3067 142.87 16.36C143.11 16.4067 143.356 16.43 143.61 16.43C144.363 16.43 144.963 16.19 145.41 15.71C145.863 15.23 146.09 14.5133 146.09 13.56C146.09 13.4067 146.08 13.2233 146.06 13.01C146.046 12.7967 146.01 12.5833 145.95 12.37L146.2 12.56C146.133 12.9067 145.99 13.2033 145.77 13.45C145.556 13.69 145.29 13.8733 144.97 14C144.656 14.1267 144.306 14.19 143.92 14.19C143.46 14.19 143.05 14.1033 142.69 13.93C142.336 13.7567 142.06 13.5133 141.86 13.2C141.66 12.8867 141.56 12.5167 141.56 12.09C141.56 11.65 141.663 11.27 141.87 10.95C142.076 10.63 142.36 10.3833 142.72 10.21C143.086 10.03 143.496 9.94 143.95 9.94ZM143.98 10.55C143.646 10.55 143.35 10.6133 143.09 10.74C142.836 10.86 142.636 11.0333 142.49 11.26C142.343 11.4867 142.27 11.7567 142.27 12.07C142.27 12.53 142.426 12.8967 142.74 13.17C143.06 13.4433 143.49 13.58 144.03 13.58C144.39 13.58 144.703 13.5133 144.97 13.38C145.243 13.2467 145.453 13.0633 145.6 12.83C145.753 12.5967 145.83 12.3367 145.83 12.05C145.83 11.79 145.76 11.5467 145.62 11.32C145.48 11.0933 145.273 10.91 145 10.77C144.726 10.6233 144.386 10.55 143.98 10.55ZM150.654 17.06C150.114 17.06 149.634 16.92 149.214 16.64C148.794 16.3533 148.464 15.9467 148.224 15.42C147.984 14.8867 147.864 14.2467 147.864 13.5C147.864 12.7533 147.984 12.1167 148.224 11.59C148.464 11.0567 148.794 10.65 149.214 10.37C149.634 10.0833 150.114 9.94 150.654 9.94C151.194 9.94 151.674 10.0833 152.094 10.37C152.514 10.65 152.844 11.0567 153.084 11.59C153.33 12.1167 153.454 12.7533 153.454 13.5C153.454 14.2467 153.33 14.8867 153.084 15.42C152.844 15.9467 152.514 16.3533 152.094 16.64C151.674 16.92 151.194 17.06 150.654 17.06ZM150.654 16.4C151.067 16.4 151.427 16.29 151.734 16.07C152.04 15.8433 152.28 15.5167 152.454 15.09C152.627 14.6567 152.714 14.1267 152.714 13.5C152.714 12.8733 152.627 12.3467 152.454 11.92C152.28 11.4867 152.04 11.16 151.734 10.94C151.427 10.7133 151.067 10.6 150.654 10.6C150.254 10.6 149.897 10.7133 149.584 10.94C149.27 11.16 149.027 11.4867 148.854 11.92C148.68 12.3467 148.594 12.8733 148.594 13.5C148.594 14.1267 148.68 14.6567 148.854 15.09C149.027 15.5167 149.27 15.8433 149.584 16.07C149.897 16.29 150.254 16.4 150.654 16.4Z" fill="white"/>
<g clip-path="url(#clip0_5_679)">
<path d="M11.646 19.8383L17.6437 24.1231L16.0521 16.0476L21.351 10.6141L14.3731 9.91338L11.646 2.29736L8.91888 9.91338L1.94098 10.6141L7.23992 16.0476L5.64829 24.1231L11.646 19.8383Z" fill="white"/>
</g>
<g clip-path="url(#clip1_5_679)">
<path d="M34.938 19.8383L40.9357 24.1231L39.3441 16.0476L44.6431 10.6141L37.6652 9.91338L34.938 2.29736L32.2109 9.91338L25.233 10.6141L30.532 16.0476L28.9403 24.1231L34.938 19.8383Z" fill="white"/>
</g>
<g clip-path="url(#clip2_5_679)">
<path d="M58.23 19.8383L64.2277 24.1231L62.6361 16.0476L67.9351 10.6141L60.9571 9.91338L58.23 2.29736L55.5029 9.91338L48.525 10.6141L53.824 16.0476L52.2323 24.1231L58.23 19.8383Z" fill="white"/>
</g>
<g clip-path="url(#clip3_5_679)">
<path d="M81.5221 19.8383L87.5198 24.1231L85.9282 16.0476L91.2271 10.6141L84.2492 9.91338L81.5221 2.29736L78.795 9.91338L71.8171 10.6141L77.116 16.0476L75.5244 24.1231L81.5221 19.8383Z" fill="white"/>
</g>
<g clip-path="url(#clip4_5_679)">
<path d="M114.519 10.6141L107.541 9.9019L104.814 2.29736L102.087 9.91338L95.1092 10.6141L100.408 16.0476L98.8165 24.1231L104.814 19.8383L110.812 24.1231L109.23 16.0476L114.519 10.6141ZM104.814 17.6902V7.00712L106.474 11.648L110.725 12.0845L107.502 15.3928L108.473 20.3093L104.814 17.6902Z" fill="white"/>
</g>
<defs>
<clipPath id="clip0_5_679">
<rect width="23.292" height="27.5693" fill="white"/>
</clipPath>
<clipPath id="clip1_5_679">
<rect width="23.292" height="27.5693" fill="white" transform="translate(23.2921)"/>
</clipPath>
<clipPath id="clip2_5_679">
<rect width="23.292" height="27.5693" fill="white" transform="translate(46.584)"/>
</clipPath>
<clipPath id="clip3_5_679">
<rect width="23.292" height="27.5693" fill="white" transform="translate(69.8761)"/>
</clipPath>
<clipPath id="clip4_5_679">
<rect width="23.292" height="27.5693" fill="white" transform="translate(93.1682)"/>
</clipPath>
</defs>
</svg>
