<svg width="1380" height="94" viewBox="0 0 1380 94" fill="none" xmlns="http://www.w3.org/2000/svg">
<line x1="129" y1="46" x2="1251" y2="46" stroke="url(#paint0_linear_6_1517)" stroke-width="2"/>
<g filter="url(#filter0_b_6_1517)">
<rect x="646" y="2.91895" width="88" height="88" rx="44" fill="white" fill-opacity="0.1"/>
<rect x="646.5" y="3.41895" width="87" height="87" rx="43.5" stroke="white"/>
<path d="M690 36.5289C687.907 39.081 686.816 42.2555 686.903 45.606L686.925 46.4177L685.38 46.0558L684.253 44.8749C684.294 42.9473 684.67 41.0632 685.372 39.2633C686.714 35.8215 688.666 34.0182 690 32.685L690.529 34.8282L690 36.5289Z" fill="white"/>
<path d="M686.073 37.7027C685.827 38.1829 685.591 38.7008 685.371 39.2633C684.761 40.8281 684.398 42.4566 684.287 44.122C685.451 44.3551 686.359 44.6979 686.902 44.9361C686.949 42.6597 687.544 40.4798 688.628 38.5397C687.667 38.0193 686.751 37.7958 686.073 37.7027Z" fill="white"/>
<path d="M679.898 54.0248C683.222 54.5674 686.541 53.863 689.307 52.1678L689.999 51.7435L690.529 53.4809L689.999 54.8283C687.578 56.156 684.868 56.8542 682.111 56.8543C679.683 56.8545 678.081 56.3531 676.569 55.9478L678.132 54.5147L679.898 54.0248Z" fill="white"/>
<path d="M682.738 54.1899C683.376 55.0862 683.706 56.0254 683.878 56.7583C686.018 56.5252 688.098 55.871 690 54.8284L690.034 54.7405C689.833 53.6773 689.438 52.8417 689.107 52.2876C687.181 53.4242 684.998 54.0863 682.738 54.1899Z" fill="white"/>
<path d="M700.101 54.0248C698.937 50.936 696.733 48.4037 693.788 46.8051L693.074 46.4178L694.372 45.1387L695.746 44.875C697.395 45.8747 698.839 47.1418 700.047 48.6499C702.357 51.533 702.941 54.1233 703.43 55.9478L701.831 55.5539L700.101 54.0248Z" fill="white"/>
<path d="M694.621 47.2951C696.508 48.4918 698.044 50.0962 699.139 51.9925C700.034 51.3882 700.661 50.6844 701.081 50.0893C700.78 49.6194 700.439 49.139 700.047 48.6499C698.99 47.3292 697.75 46.1932 696.351 45.2599C695.727 46.165 695.092 46.8464 694.621 47.2951Z" fill="white"/>
<path d="M682.733 65.5567C680.237 65.5567 677.742 64.0179 675.925 62.2779C665.825 52.1783 669.378 35.0819 682.51 29.7566C695.558 24.4656 709.904 34.0521 709.904 48.2034C709.904 58.2416 702.543 65.5567 697.267 65.5567C693.016 65.5567 690.512 61.1875 691.441 56.7796C693.098 48.9159 697.901 49.0352 700.374 42.2515C695.441 41.2547 692.746 42.7039 690 44.3868C687.257 42.7061 684.576 41.251 679.625 42.2515C682.095 49.0277 686.904 48.9269 688.558 56.7796C689.489 61.1949 686.978 65.5564 682.733 65.5567ZM677.778 60.3843C683.8 65.8924 686.784 61.2093 685.966 57.3259C684.422 49.9975 679.239 50.6448 676.648 41.6602L676.274 40.363C680.089 39.3408 684.433 38.1703 690 41.2968C692.45 39.9207 694.805 39.2759 697.352 39.2759C699.903 39.2759 701.986 39.897 703.725 40.363L703.351 41.6602C700.76 50.6434 695.578 49.996 694.033 57.3259C693.217 61.2008 696.184 65.9061 702.221 60.3843C708.929 53.6551 708.922 42.7235 702.201 36.0023C695.457 29.2589 684.542 29.2584 677.798 36.0023C671.077 42.7235 671.07 53.6551 677.778 60.3843Z" fill="white"/>
<path d="M693.902 58.4515C693.912 58.0752 693.955 57.6968 694.033 57.3259C694.523 55.0033 695.378 53.4818 696.399 52.2008C695.266 51.9998 694.329 51.6813 693.668 51.4079C692.738 52.7404 691.944 54.3915 691.441 56.7796C691.386 57.0419 691.343 57.304 691.312 57.565C692.296 58.1192 693.234 58.3539 693.902 58.4515Z" fill="white"/>
<path d="M678.935 46.7987C680.371 48.9872 681.987 50.2763 683.349 51.8948C684.023 51.0471 684.696 50.4128 685.205 49.9879C683.799 48.393 682.244 47.102 680.949 45.0065C680.025 45.5695 679.37 46.2426 678.935 46.7987Z" fill="white"/>
<path d="M697.343 41.9253C697.245 40.9191 696.956 39.9751 696.696 39.2907C694.484 39.3893 692.402 39.9915 690.254 41.1565C690.756 42.2619 690.917 43.1794 690.954 43.8159C692.773 42.7636 694.686 41.9234 697.343 41.9253Z" fill="white"/>
<path d="M676.569 55.9478C677.018 54.2708 677.593 51.595 679.952 48.6499C681.159 47.1418 682.604 45.8746 684.253 44.875L686.925 46.4178L686.211 46.8051C683.266 48.4037 681.062 50.936 679.898 54.0249L676.569 55.9478Z" fill="white"/>
<path d="M703.43 55.9478L702.151 56.2906C697.999 57.4033 693.675 56.8434 690 54.8283V51.7435L690.692 52.1678C693.457 53.8622 696.775 54.5677 700.101 54.0248L703.43 55.9478Z" fill="white"/>
<path d="M693.074 46.4177L693.096 45.606C693.183 42.2554 692.092 39.0809 690 36.5289V32.685L690.936 33.6217C694.05 36.7357 695.658 40.7948 695.746 44.8749L693.074 46.4177Z" fill="white"/>
</g>
<defs>
<filter id="filter0_b_6_1517" x="636" y="-7.08105" width="108" height="108" filterUnits="userSpaceOnUse" color-interpolation-filters="sRGB">
<feFlood flood-opacity="0" result="BackgroundImageFix"/>
<feGaussianBlur in="BackgroundImageFix" stdDeviation="5"/>
<feComposite in2="SourceAlpha" operator="in" result="effect1_backgroundBlur_6_1517"/>
<feBlend mode="normal" in="SourceGraphic" in2="effect1_backgroundBlur_6_1517" result="shape"/>
</filter>
<linearGradient id="paint0_linear_6_1517" x1="134" y1="46.9257" x2="1251" y2="47.0067" gradientUnits="userSpaceOnUse">
<stop stop-opacity="0"/>
<stop offset="0.244792" stop-color="#CCCCCC"/>
<stop offset="0.760417" stop-color="#CCCCCC"/>
<stop offset="1" stop-opacity="0"/>
</linearGradient>
</defs>
</svg>
