<svg width="56" height="60" viewBox="0 0 56 60" fill="none" xmlns="http://www.w3.org/2000/svg">
<g filter="url(#filter0_b_6_1564)">
<rect width="55.2128" height="60" rx="27.6064" fill="white" fill-opacity="0.1"/>
<rect x="0.5" y="0.5" width="54.2128" height="59" rx="27.1064" stroke="black"/>
<path d="M27.6059 19.61C25.5134 22.1621 24.4221 25.3366 24.5097 28.6872L24.531 29.4988L22.9865 29.1369L21.8593 27.956C21.9007 26.0284 22.276 24.1443 22.9778 22.3444C24.3199 18.9026 26.2727 17.0993 27.6059 15.7661L28.1358 17.9093L27.6059 19.61Z" fill="black"/>
<path d="M23.6796 20.7837C23.433 21.2638 23.1971 21.7818 22.9778 22.3443C22.3676 23.9091 22.0046 25.5376 21.8928 27.203C23.0571 27.4361 23.9655 27.7788 24.5083 28.0171C24.5557 25.7407 25.15 23.5608 26.2344 21.6207C25.273 21.1003 24.3577 20.8768 23.6796 20.7837Z" fill="black"/>
<path d="M17.5042 37.106C20.8288 37.6486 24.1475 36.9442 26.9136 35.2489L27.6058 34.8247L28.1357 36.5621L27.6058 37.9095C25.1845 39.2372 22.4739 39.9354 19.7172 39.9355C17.2896 39.9356 15.6878 39.4343 14.175 39.029L15.7388 37.5959L17.5042 37.106Z" fill="black"/>
<path d="M20.344 37.2709C20.9818 38.1672 21.3125 39.1064 21.4839 39.8393C23.6244 39.6062 25.7043 38.952 27.6058 37.9094L27.6404 37.8216C27.4395 36.7584 27.0442 35.9227 26.7132 35.3687C24.787 36.5052 22.6042 37.1673 20.344 37.2709Z" fill="black"/>
<path d="M37.7074 37.1059C36.5431 34.0171 34.3396 31.4848 31.3943 29.8862L30.6807 29.4989L31.9781 28.2198L33.3524 27.9561C35.0014 28.9557 36.4458 30.2229 37.6536 31.731C39.9629 34.6141 40.5477 37.2044 41.0365 39.0289L39.4372 38.635L37.7074 37.1059Z" fill="black"/>
<path d="M32.2278 30.3761C34.1141 31.5728 35.65 33.1772 36.7454 35.0734C37.6408 34.4691 38.2674 33.7654 38.6871 33.1703C38.3866 32.7004 38.0455 32.2199 37.6538 31.7309C36.5959 30.4101 35.3566 29.2741 33.9574 28.3408C33.3329 29.246 32.6982 29.9274 32.2278 30.3761Z" fill="black"/>
<path d="M20.3389 48.6378C17.8435 48.6378 15.348 47.099 13.5312 45.359C3.43151 35.2594 6.98431 18.1629 20.1164 12.8377C33.1645 7.54669 47.5104 17.1332 47.5104 31.2845C47.5104 41.3227 40.1496 48.6378 34.8736 48.6378C30.6222 48.6378 28.1181 44.2686 29.047 39.8607C30.7041 31.9969 35.5073 32.1163 37.9807 25.3326C33.0478 24.3358 30.3519 25.7849 27.6059 27.4678C24.8636 25.7872 22.1828 24.332 17.231 25.3326C19.7017 32.1088 24.51 32.008 26.1648 39.8607C27.0951 44.276 24.5842 48.6375 20.3389 48.6378ZM15.3845 43.4654C21.4061 48.9735 24.3905 44.2904 23.5722 40.407C22.0279 33.0786 16.8454 33.7259 14.2548 24.7413L13.8808 23.4441C17.6953 22.4219 22.039 21.2513 27.6059 24.3779C30.0562 23.0018 32.4112 22.3569 34.9581 22.3569C37.5088 22.3569 39.592 22.9781 41.3309 23.4441L40.9569 24.7413C38.3666 33.7245 33.1841 33.0771 31.6395 40.407C30.8229 44.2819 33.7908 48.9871 39.8271 43.4654C46.535 36.7361 46.5281 25.8046 39.807 19.0834C33.0636 12.34 22.1486 12.3395 15.4046 19.0834C8.68354 25.8046 8.67658 36.7362 15.3845 43.4654Z" fill="black"/>
<path d="M31.5087 41.5327C31.5182 41.1564 31.5616 40.7779 31.6397 40.4071C32.1291 38.0845 32.9839 36.5629 34.0056 35.282C32.8722 35.0809 31.9358 34.7625 31.274 34.489C30.344 35.8216 29.5503 37.4727 29.0471 39.8608C28.9918 40.123 28.9491 40.3851 28.9178 40.6461C29.9027 41.2004 30.8406 41.435 31.5087 41.5327Z" fill="black"/>
<path d="M16.541 29.8798C17.9774 32.0683 19.5936 33.3574 20.9549 34.9759C21.6291 34.1283 22.3022 33.4939 22.8111 33.0691C21.4054 31.4741 19.8502 30.1831 18.5557 28.0876C17.6311 28.6506 16.9759 29.3237 16.541 29.8798Z" fill="black"/>
<path d="M34.9488 25.0065C34.8509 24.0002 34.5619 23.0562 34.3018 22.3718C32.0908 22.4704 30.0086 23.0726 27.8607 24.2376C28.362 25.343 28.5231 26.2605 28.56 26.897C30.3795 25.8447 32.2921 25.0045 34.9488 25.0065Z" fill="black"/>
<path d="M14.175 39.0289C14.6244 37.3519 15.199 34.6761 17.5579 31.731C18.7658 30.2229 20.2103 28.9557 21.8592 27.9561L24.531 29.4989L23.8174 29.8862C20.8721 31.4848 18.6685 34.0171 17.5042 37.106L14.175 39.0289Z" fill="black"/>
<path d="M41.0367 39.029L39.7571 39.3718C35.6049 40.4845 31.2808 39.9246 27.6058 37.9095V34.8247L28.2981 35.2489C31.0629 36.9434 34.3808 37.6488 37.7075 37.106L41.0367 39.029Z" fill="black"/>
<path d="M30.6807 29.4988L30.702 28.6872C30.7897 25.3365 29.6983 22.162 27.6058 19.61V15.7661L28.5426 16.7028C31.6565 19.8168 33.2646 23.8759 33.3524 27.956L30.6807 29.4988Z" fill="black"/>
</g>
<defs>
<filter id="filter0_b_6_1564" x="-10" y="-10" width="75.2128" height="80" filterUnits="userSpaceOnUse" color-interpolation-filters="sRGB">
<feFlood flood-opacity="0" result="BackgroundImageFix"/>
<feGaussianBlur in="BackgroundImageFix" stdDeviation="5"/>
<feComposite in2="SourceAlpha" operator="in" result="effect1_backgroundBlur_6_1564"/>
<feBlend mode="normal" in="SourceGraphic" in2="effect1_backgroundBlur_6_1564" result="shape"/>
</filter>
</defs>
</svg>
