<svg width="167" height="26" viewBox="0 0 167 26" fill="none" xmlns="http://www.w3.org/2000/svg">
<path d="M102.4 14.16V13.64L106.11 9H106.91L103.23 13.64L102.84 13.52H108.47V14.16H102.4ZM106.35 16V14.16L106.37 13.52V11.9H107.07V16H106.35ZM114.299 16.06C113.779 16.06 113.279 15.9767 112.799 15.81C112.325 15.6367 111.959 15.4167 111.699 15.15L111.989 14.58C112.235 14.82 112.565 15.0233 112.979 15.19C113.399 15.35 113.839 15.43 114.299 15.43C114.739 15.43 115.095 15.3767 115.369 15.27C115.649 15.1567 115.852 15.0067 115.979 14.82C116.112 14.6333 116.179 14.4267 116.179 14.2C116.179 13.9267 116.099 13.7067 115.939 13.54C115.785 13.3733 115.582 13.2433 115.329 13.15C115.075 13.05 114.795 12.9633 114.489 12.89C114.182 12.8167 113.875 12.74 113.569 12.66C113.262 12.5733 112.979 12.46 112.719 12.32C112.465 12.18 112.259 11.9967 112.099 11.77C111.945 11.5367 111.869 11.2333 111.869 10.86C111.869 10.5133 111.959 10.1967 112.139 9.91C112.325 9.61667 112.609 9.38333 112.989 9.21C113.369 9.03 113.855 8.94 114.449 8.94C114.842 8.94 115.232 8.99667 115.619 9.11C116.005 9.21667 116.339 9.36667 116.619 9.56L116.369 10.15C116.069 9.95 115.749 9.80333 115.409 9.71C115.075 9.61667 114.752 9.57 114.439 9.57C114.019 9.57 113.672 9.62667 113.399 9.74C113.125 9.85333 112.922 10.0067 112.789 10.2C112.662 10.3867 112.599 10.6 112.599 10.84C112.599 11.1133 112.675 11.3333 112.829 11.5C112.989 11.6667 113.195 11.7967 113.449 11.89C113.709 11.9833 113.992 12.0667 114.299 12.14C114.605 12.2133 114.909 12.2933 115.209 12.38C115.515 12.4667 115.795 12.58 116.049 12.72C116.309 12.8533 116.515 13.0333 116.669 13.26C116.829 13.4867 116.909 13.7833 116.909 14.15C116.909 14.49 116.815 14.8067 116.629 15.1C116.442 15.3867 116.155 15.62 115.769 15.8C115.389 15.9733 114.899 16.06 114.299 16.06ZM120.031 16.05C119.538 16.05 119.158 15.9167 118.891 15.65C118.624 15.3833 118.491 15.0067 118.491 14.52V9.59H119.201V14.48C119.201 14.7867 119.278 15.0233 119.431 15.19C119.591 15.3567 119.818 15.44 120.111 15.44C120.424 15.44 120.684 15.35 120.891 15.17L121.141 15.68C121.001 15.8067 120.831 15.9 120.631 15.96C120.438 16.02 120.238 16.05 120.031 16.05ZM117.551 11.34V10.75H120.801V11.34H117.551ZM125.723 16V14.84L125.693 14.65V12.71C125.693 12.2633 125.567 11.92 125.313 11.68C125.067 11.44 124.697 11.32 124.203 11.32C123.863 11.32 123.54 11.3767 123.233 11.49C122.927 11.6033 122.667 11.7533 122.453 11.94L122.133 11.41C122.4 11.1833 122.72 11.01 123.093 10.89C123.467 10.7633 123.86 10.7 124.273 10.7C124.953 10.7 125.477 10.87 125.843 11.21C126.217 11.5433 126.403 12.0533 126.403 12.74V16H125.723ZM123.913 16.05C123.52 16.05 123.177 15.9867 122.883 15.86C122.597 15.7267 122.377 15.5467 122.223 15.32C122.07 15.0867 121.993 14.82 121.993 14.52C121.993 14.2467 122.057 14 122.183 13.78C122.317 13.5533 122.53 13.3733 122.823 13.24C123.123 13.1 123.523 13.03 124.023 13.03H125.833V13.56H124.043C123.537 13.56 123.183 13.65 122.983 13.83C122.79 14.01 122.693 14.2333 122.693 14.5C122.693 14.8 122.81 15.04 123.043 15.22C123.277 15.4 123.603 15.49 124.023 15.49C124.423 15.49 124.767 15.4 125.053 15.22C125.347 15.0333 125.56 14.7667 125.693 14.42L125.853 14.91C125.72 15.2567 125.487 15.5333 125.153 15.74C124.827 15.9467 124.413 16.05 123.913 16.05ZM128.332 16V10.75H129.012V12.18L128.942 11.93C129.088 11.53 129.335 11.2267 129.682 11.02C130.028 10.8067 130.458 10.7 130.972 10.7V11.39C130.945 11.39 130.918 11.39 130.892 11.39C130.865 11.3833 130.838 11.38 130.812 11.38C130.258 11.38 129.825 11.55 129.512 11.89C129.198 12.2233 129.042 12.7 129.042 13.32V16H128.332Z" fill="white"/>
<g clip-path="url(#clip0_6_2091)">
<path d="M11.6459 18.1997L17.6436 22.1305L16.052 14.7221L21.3509 9.73743L14.373 9.09459L11.6459 2.10767L8.91882 9.09459L1.94092 9.73743L7.23986 14.7221L5.64823 22.1305L11.6459 18.1997Z" fill="white"/>
</g>
<g clip-path="url(#clip1_6_2091)">
<path d="M34.9379 18.1997L40.9356 22.1305L39.344 14.7221L44.6429 9.73743L37.665 9.09459L34.9379 2.10767L32.2108 9.09459L25.2329 9.73743L30.5318 14.7221L28.9402 22.1305L34.9379 18.1997Z" fill="white"/>
</g>
<g clip-path="url(#clip2_6_2091)">
<path d="M58.2299 18.1997L64.2276 22.1305L62.636 14.7221L67.9349 9.73743L60.957 9.09459L58.2299 2.10767L55.5028 9.09459L48.5249 9.73743L53.8238 14.7221L52.2322 22.1305L58.2299 18.1997Z" fill="white"/>
</g>
<g clip-path="url(#clip3_6_2091)">
<path d="M81.5222 18.1997L87.5199 22.1305L85.9282 14.7221L91.2272 9.73743L84.2493 9.09459L81.5222 2.10767L78.795 9.09459L71.8171 9.73743L77.1161 14.7221L75.5245 22.1305L81.5222 18.1997Z" fill="white"/>
</g>
<defs>
<clipPath id="clip0_6_2091">
<rect width="23.292" height="25.292" fill="white"/>
</clipPath>
<clipPath id="clip1_6_2091">
<rect width="23.292" height="25.292" fill="white" transform="translate(23.292)"/>
</clipPath>
<clipPath id="clip2_6_2091">
<rect width="23.292" height="25.292" fill="white" transform="translate(46.584)"/>
</clipPath>
<clipPath id="clip3_6_2091">
<rect width="23.292" height="25.292" fill="white" transform="translate(69.8762)"/>
</clipPath>
</defs>
</svg>
